# xmcd
#
# Track frame offsets:
#	182
#	15505
#	28210
#	42917
#	58597
#	79890
#	96122
#	109972
#	126240
#	139840
#
# Disc length: 2110 seconds
#
# Revision: 4
# Processed by: cddbd v1.5.2PL0 Copyright (c) Steve Scherf et al.
# Submitted via: audiograbber 1.83.01
#
DISCID=86083c0a
DTITLE=Trisha Yearwood - Thinkin' About You
DYEAR=1995
DGENRE=Country
TTITLE0=Thinkin' About You
TTITLE1=XXX's and OOO's (An American Girl)
TTITLE2=You Can Sleep While I Drive
TTITLE3=The Restless Kind
TTITLE4=On A Bus To St. Cloud
TTITLE5=Fairytale
TTITLE6=Those Words We Said
TTITLE7=O Mexico
TTITLE8=I Wanna Go Too Far
TTITLE9=Till I Get It Right
EXTD=
EXTT0=
EXTT1=
EXTT2=
EXTT3=
EXTT4=
EXTT5=
EXTT6=
EXTT7=
EXTT8=
EXTT9=
PLAYORDER=
